<svg width="30" height="36" viewBox="0 0 30 36" fill="none" xmlns="http://www.w3.org/2000/svg">
<path d="M4.12646 13.0869C4.70196 8.83622 7.30569 5.1297 11.1092 3.14663L11.6766 2.85082C14.1814 1.54488 17.044 1.09225 19.8295 1.56171V1.56171C25.5822 2.53123 29.7942 7.51247 29.7942 13.3462V27.535C29.7942 31.7471 26.3795 35.1618 22.1674 35.1618H7.78131C4.50682 35.1618 2.28641 31.8301 3.54671 28.8079L5.80479 23.3929C7.01708 20.4858 6.23352 17.1291 3.85943 15.0592V15.0592L4.12646 13.0869Z" fill="#5D6CBB"/>
<path fill-rule="evenodd" clip-rule="evenodd" d="M17.9264 11.8602C17.8904 11.8651 17.8536 11.8676 17.8162 11.8676C17.3655 11.8676 17 11.5022 17 11.0515C17 11.0441 17.0001 11.0368 17.0003 11.0294C15.7817 11.0403 15.7852 12.9265 17.0109 12.9265C17.6764 12.9265 17.9816 12.3703 17.9264 11.8602Z" fill="#192359"/>
<path fill-rule="evenodd" clip-rule="evenodd" d="M5.71673 12.8308C5.68068 12.8357 5.64388 12.8382 5.6065 12.8382C5.15573 12.8382 4.79032 12.4728 4.79032 12.022C4.79032 12.0147 4.79042 12.0073 4.79061 12C3.57198 12.0109 3.5755 13.897 4.80117 13.897C5.46672 13.897 5.77191 13.3409 5.71673 12.8308Z" fill="#192359"/>
<ellipse cx="13.5588" cy="20.4706" rx="9.52941" ry="6.39706" fill="url(#paint0_linear)"/>
<path d="M18.4057 16.6452C19.1707 19.3973 15.4969 21.6632 10.993 20.7C8.61283 20.191 5.02105 22.4052 2.99409 21.0577V21.0577C2.10324 20.4655 1.65212 19.3446 1.64034 18.2749C1.61027 15.545 3.8567 13.7843 8.32486 12.5422C13.6068 11.074 17.3877 12.983 18.4057 16.6452Z" fill="url(#paint1_linear)"/>
<path d="M7.19698 14.3829C6.95856 15.1889 5.93699 15.4346 5.35816 14.8251V14.8251C4.77933 14.2156 5.07737 13.208 5.89462 13.0115V13.0115C6.71188 12.815 7.43541 13.5769 7.19698 14.3829V14.3829Z" fill="#080D27"/>
<defs>
<linearGradient id="paint0_linear" x1="6.25736" y1="24.6176" x2="19.7132" y2="20.4706" gradientUnits="userSpaceOnUse">
<stop stop-color="#1F295C"/>
<stop offset="1" stop-color="#5D6CBB"/>
</linearGradient>
<linearGradient id="paint1_linear" x1="9.50005" y1="17.1177" x2="11.8603" y2="13.103" gradientUnits="userSpaceOnUse">
<stop stop-color="#1F295C"/>
<stop offset="0.9375" stop-color="#5D6CBB"/>
</linearGradient>
</defs>
</svg>
