<svg width="48" height="48" viewBox="0 0 48 48" fill="none" xmlns="http://www.w3.org/2000/svg">
<circle cx="24" cy="24" r="24" fill="white"/>
<path d="M11.1265 19.0869C11.702 14.8362 14.3057 11.1297 18.1092 9.14663L18.6766 8.85082C21.1814 7.54488 24.044 7.09225 26.8295 7.56171V7.56171C32.5822 8.53123 36.7942 13.5125 36.7942 19.3462V33.535C36.7942 37.7471 33.3795 41.1618 29.1674 41.1618H14.7813C11.5068 41.1618 9.28641 37.8301 10.5467 34.8079L12.8048 29.3929C14.0171 26.4858 13.2335 23.1291 10.8594 21.0592V21.0592L11.1265 19.0869Z" fill="#5D6CBB"/>
<path fill-rule="evenodd" clip-rule="evenodd" d="M24.9264 17.8602C24.8904 17.8651 24.8536 17.8676 24.8162 17.8676C24.3655 17.8676 24 17.5022 24 17.0515C24 17.0441 24.0001 17.0368 24.0003 17.0294C22.7817 17.0403 22.7852 18.9265 24.0109 18.9265C24.6764 18.9265 24.9816 18.3703 24.9264 17.8602Z" fill="#192359"/>
<path fill-rule="evenodd" clip-rule="evenodd" d="M12.7167 18.8308C12.6807 18.8357 12.6439 18.8382 12.6065 18.8382C12.1557 18.8382 11.7903 18.4728 11.7903 18.022C11.7903 18.0147 11.7904 18.0073 11.7906 18C10.572 18.0109 10.5755 19.897 11.8012 19.897C12.4667 19.897 12.7719 19.3409 12.7167 18.8308Z" fill="#192359"/>
<ellipse cx="20.5588" cy="26.4706" rx="9.52941" ry="6.39706" fill="url(#paint0_linear)"/>
<path d="M25.4057 22.6452C26.1707 25.3973 22.4969 27.6632 17.993 26.7C15.6128 26.191 12.0211 28.4052 9.99409 27.0577V27.0577C9.10324 26.4655 8.65212 25.3446 8.64034 24.2749C8.61027 21.545 10.8567 19.7843 15.3249 18.5422C20.6068 17.074 24.3877 18.983 25.4057 22.6452Z" fill="url(#paint1_linear)"/>
<path d="M14.197 20.3829C13.9586 21.1889 12.937 21.4346 12.3582 20.8251V20.8251C11.7793 20.2156 12.0774 19.208 12.8946 19.0115V19.0115C13.7119 18.815 14.4354 19.5769 14.197 20.3829V20.3829Z" fill="#080D27"/>
<defs>
<linearGradient id="paint0_linear" x1="13.2574" y1="30.6176" x2="26.7132" y2="26.4706" gradientUnits="userSpaceOnUse">
<stop stop-color="#1F295C"/>
<stop offset="1" stop-color="#5D6CBB"/>
</linearGradient>
<linearGradient id="paint1_linear" x1="16.5001" y1="23.1177" x2="18.8603" y2="19.103" gradientUnits="userSpaceOnUse">
<stop stop-color="#1F295C"/>
<stop offset="0.9375" stop-color="#5D6CBB"/>
</linearGradient>
</defs>
</svg>
